<svg viewBox="0 7.77 32 16.449">
    <path fill="#e13205" d="M0 8.208h3.986v15.726H0V8.208m23.042-.438L32 23.934h-4.534l-.986-1.752h-4.512l1.577-2.848h1.358l-1.862-3.373-1.949 3.504a13.904 13.904 0 01-.92 1.446 8.172 8.172 0 01-6.571 3.308c-4.49 0-8.148-3.658-8.148-8.148s3.658-8.148 8.148-8.148c1.533 0 2.913.416 4.118 1.117l-1.927 3.482a4.265 4.265 0 00-2.19-.613c-2.3 0-4.161 1.862-4.161 4.162s1.862 4.162 4.161 4.162c1.249 0 2.278-.526 3.023-1.292.328-.329.701-.876.81-1.073l5.607-10.097"></path>
</svg>