<?xml version="1.0" standalone="no"?>
<!DOCTYPE svg PUBLIC "-//W3C//DTD SVG 20010904//EN"
 "http://www.w3.org/TR/2001/REC-SVG-20010904/DTD/svg10.dtd">
<svg version="1.0" xmlns="http://www.w3.org/2000/svg"
 width="1024.000000pt" height="1024.000000pt" viewBox="0 0 1024.000000 1024.000000"
 preserveAspectRatio="xMidYMid meet">
<metadata>
Created by potrace 1.14, written by Peter Selinger 2001-2017
</metadata>
<g transform="translate(0.000000,1024.000000) scale(0.100000,-0.100000)"
fill="#000000" stroke="none">
<path d="M7363 7720 c-3 -11 -9 -20 -14 -20 -5 0 -9 -4 -9 -9 0 -5 -16 -38
-36 -73 -20 -34 -48 -85 -64 -113 -158 -286 -238 -429 -263 -475 -16 -30 -45
-81 -63 -113 -19 -32 -34 -62 -34 -68 0 -5 -4 -9 -10 -9 -5 0 -10 -9 -10 -20
0 -11 -4 -20 -10 -20 -5 0 -10 -4 -10 -9 0 -5 -25 -52 -55 -106 -30 -53 -55
-100 -55 -105 0 -4 -7 -13 -15 -20 -8 -6 -14 -15 -12 -18 1 -4 -6 -18 -14 -32
-9 -14 -52 -90 -96 -170 -96 -174 -121 -219 -184 -331 -27 -48 -49 -91 -49
-98 0 -6 -3 -11 -8 -11 -4 0 -15 -17 -25 -37 -9 -21 -22 -45 -27 -53 -24 -36
-120 -213 -120 -221 0 -5 -5 -9 -12 -9 -6 0 -8 -3 -5 -6 4 -4 -2 -19 -11 -33
-10 -14 -23 -37 -30 -51 -6 -14 -16 -32 -22 -40 -5 -8 -42 -73 -81 -145 -40
-71 -82 -148 -94 -170 -29 -52 -204 -367 -290 -520 -58 -104 -149 -250 -165
-265 -3 -3 -29 -34 -57 -70 -61 -77 -155 -170 -238 -234 -33 -26 -65 -50 -70
-54 -52 -41 -268 -148 -316 -157 -10 -2 -24 -7 -29 -10 -9 -6 -25 -10 -80 -21
-14 -3 -45 -10 -69 -15 -67 -15 -147 -22 -251 -22 -135 -1 -192 7 -366 48 -41
10 -160 56 -229 90 -169 82 -357 238 -458 377 -17 23 -34 45 -38 48 -3 3 -31
48 -61 100 -66 117 -110 223 -118 285 -1 6 -5 15 -10 20 -7 9 -21 67 -36 145
-3 19 -8 107 -9 195 -4 167 12 294 52 410 9 27 18 53 19 58 1 4 2 8 4 10 1 1
3 9 5 18 1 8 24 58 49 110 198 400 580 674 1026 736 63 8 284 9 330 1 124 -23
162 -31 250 -58 52 -17 139 -52 193 -78 l97 -49 62 111 c33 61 76 138 95 171
19 33 44 80 56 105 12 25 25 47 28 50 3 3 24 39 46 80 22 41 52 96 67 123 14
26 38 68 52 95 15 26 45 81 67 122 22 41 43 77 47 80 3 3 16 25 28 50 12 25
31 62 44 82 22 37 22 38 2 52 -24 18 -133 73 -239 121 -44 20 -89 40 -100 45
-11 5 -74 27 -140 49 -155 52 -278 81 -445 105 -19 3 -51 7 -70 10 -106 16
-356 21 -480 11 -194 -17 -226 -21 -379 -56 -186 -43 -213 -51 -361 -107 -128
-48 -371 -165 -425 -204 -5 -5 -57 -39 -115 -78 -58 -38 -117 -80 -132 -92
-15 -13 -44 -36 -65 -53 -54 -43 -130 -113 -181 -165 -91 -94 -148 -157 -172
-189 -14 -18 -32 -40 -41 -49 -25 -26 -152 -211 -179 -262 -14 -25 -28 -47
-31 -50 -11 -8 -130 -250 -144 -290 -1 -3 -7 -18 -14 -35 -45 -113 -101 -287
-115 -360 -4 -16 -9 -41 -12 -55 -59 -259 -76 -620 -40 -880 6 -43 18 -124 22
-145 2 -11 7 -33 9 -48 11 -57 61 -251 72 -277 3 -8 7 -19 8 -25 5 -22 69
-184 97 -245 63 -139 181 -351 200 -358 4 -2 8 -9 8 -16 0 -7 8 -21 18 -32 10
-10 33 -41 52 -69 18 -27 42 -57 52 -66 10 -9 18 -20 18 -25 1 -25 261 -287
392 -395 88 -73 346 -245 373 -250 6 0 21 -9 35 -18 28 -19 173 -91 183 -91 4
0 26 -9 50 -20 64 -29 149 -61 176 -66 13 -3 31 -9 41 -14 23 -12 177 -52 275
-70 206 -39 278 -45 510 -45 110 0 229 4 265 9 109 14 114 14 150 21 19 3 49
8 65 11 239 39 569 161 825 306 51 29 269 174 280 187 3 3 28 24 55 46 154
123 316 292 453 473 9 12 22 28 27 35 36 44 216 330 236 375 7 17 17 32 20 32
3 0 16 23 29 50 13 28 27 50 32 50 5 0 7 4 4 9 -3 5 2 19 12 32 10 13 28 42
39 64 11 22 29 56 40 75 102 183 143 259 143 268 0 7 4 12 8 12 5 0 24 30 43
68 19 37 39 73 46 80 6 6 15 22 19 35 4 12 10 24 14 27 3 3 17 25 29 50 23 45
42 80 96 175 15 28 40 71 54 97 l25 47 20 -32 c11 -18 20 -34 21 -37 0 -3 3
-9 7 -15 12 -20 52 -91 78 -140 15 -27 46 -83 69 -124 22 -41 41 -77 41 -82 0
-4 3 -9 8 -11 4 -1 15 -19 24 -38 10 -19 37 -69 60 -111 24 -42 80 -144 124
-225 45 -82 96 -174 113 -205 l31 -57 -173 0 c-288 -1 -261 3 -280 -34 -25
-50 -89 -166 -128 -233 -19 -33 -43 -78 -54 -100 -11 -22 -22 -42 -25 -45 -6
-6 -10 -13 -65 -115 -20 -38 -49 -90 -64 -115 -42 -73 -81 -143 -97 -175 -8
-16 -21 -41 -29 -54 -8 -14 -12 -28 -9 -32 2 -4 309 -8 682 -8 372 0 694 0
715 -1 29 0 40 -5 47 -22 5 -13 25 -50 45 -83 19 -33 41 -71 47 -85 7 -14 15
-27 18 -30 3 -3 11 -16 17 -30 7 -14 25 -47 41 -75 32 -55 53 -93 101 -177
l32 -57 724 0 725 0 -37 67 c-20 37 -39 72 -43 77 -4 6 -24 42 -45 80 -20 39
-63 115 -94 170 -64 115 -103 185 -128 235 -10 19 -21 37 -25 38 -5 2 -8 8 -8
13 0 5 -29 60 -64 122 -35 61 -80 144 -101 182 -21 39 -45 84 -55 100 -10 17
-29 51 -44 78 -14 26 -37 66 -50 90 -12 23 -40 74 -61 112 -21 39 -41 75 -45
80 -7 10 -42 74 -107 195 -20 36 -43 79 -53 95 -10 17 -29 51 -44 78 -14 26
-37 66 -50 90 -13 23 -38 69 -56 102 -18 33 -53 95 -76 137 -24 43 -44 82 -44
88 0 5 -4 10 -9 10 -5 0 -13 10 -16 21 -4 12 -22 47 -40 78 -18 31 -46 81 -62
111 -17 30 -41 75 -55 100 -14 25 -74 133 -133 240 -59 107 -125 225 -146 262
-21 36 -39 69 -39 72 0 3 -14 29 -32 58 -17 29 -49 87 -71 128 -22 41 -48 87
-58 101 -10 14 -16 28 -13 31 2 3 -2 11 -11 18 -8 7 -15 16 -15 20 0 5 -16 37
-36 72 -20 34 -52 92 -72 128 -19 36 -44 77 -54 93 -11 15 -16 27 -13 27 3 0
-2 12 -13 28 -11 15 -36 59 -56 97 -20 39 -41 77 -47 85 -9 15 -59 105 -127
230 -19 36 -50 91 -68 123 -19 32 -34 62 -34 68 0 5 -3 9 -8 9 -4 0 -15 17
-25 38 -9 20 -30 60 -47 87 -16 28 -34 60 -39 71 -5 12 -41 77 -79 145 -38 68
-86 156 -107 194 -21 39 -51 92 -67 118 -15 26 -28 52 -28 57 0 18 -22 10 -27
-10z"/>
<path d="M10 5096 l0 -2515 637 2 638 2 0 2510 0 2510 -638 3 -637 2 0 -2514z"/>
</g>
</svg>
